<?xml version="1.0" encoding="UTF-8" standalone="no"?>
<svg
   xmlns:dc="http://purl.org/dc/elements/1.1/"
   xmlns:cc="http://creativecommons.org/ns#"
   xmlns:rdf="http://www.w3.org/1999/02/22-rdf-syntax-ns#"
   xmlns:svg="http://www.w3.org/2000/svg"
   xmlns="http://www.w3.org/2000/svg"
   xmlns:sodipodi="http://sodipodi.sourceforge.net/DTD/sodipodi-0.dtd"
   xmlns:inkscape="http://www.inkscape.org/namespaces/inkscape"
   version="1.1"
   id="svg2"
   viewBox="0 0 270.93333 270.93334"
   height="1024"
   width="1024"
   inkscape:version="0.91+devel+osxmenu r12922"
   sodipodi:docname="logo.svg">
  <sodipodi:namedview
     pagecolor="#ffffff"
     bordercolor="#666666"
     borderopacity="1"
     objecttolerance="10"
     gridtolerance="10"
     guidetolerance="10"
     inkscape:pageopacity="0"
     inkscape:pageshadow="2"
     inkscape:window-width="1440"
     inkscape:window-height="779"
     id="namedview8157"
     showgrid="false"
     inkscape:zoom="0.59556728"
     inkscape:cx="512.15152"
     inkscape:cy="514.03448"
     inkscape:window-x="0"
     inkscape:window-y="23"
     inkscape:window-maximized="0"
     inkscape:current-layer="svg2" />
  <defs
     id="defs4" />
  <metadata
     id="metadata7">
    <rdf:RDF>
      <cc:Work
         rdf:about="">
        <dc:format>image/svg+xml</dc:format>
        <dc:type
           rdf:resource="http://purl.org/dc/dcmitype/StillImage" />
        <dc:title></dc:title>
      </cc:Work>
    </rdf:RDF>
  </metadata>
  <g
     style="display:inline"
     id="layer4"
     transform="matrix(3.9747433,0,0,4.0271746,0.89544229,-1.4585952)">
    <ellipse
       ry="33.334442"
       rx="33.334438"
       cy="33.866665"
       cx="33.866669"
       id="path7341"
       style="display:inline;fill:#abe5f3;fill-opacity:1;fill-rule:evenodd;stroke:#33b5cb;stroke-width:1.06400001;stroke-linecap:butt;stroke-linejoin:miter;stroke-miterlimit:4;stroke-dasharray:none;stroke-opacity:0" />
  </g>
  <g
     style="display:inline"
     id="layer6"
     transform="matrix(3.9747433,0,0,4.0271746,0.89544229,-1.4585952)">
    <path
       id="path8254-8"
       d="m 36.612175,296.36748 c -2.386769,0.024 -5.489598,-0.59305 -7.915299,-1.38946 -5.123586,-1.68219 -9.124252,-3.69572 -12.930817,-7.4882 -2.797943,-2.78758 -4.728475,-5.46706 -6.4296106,-8.92395 -1.034416,-2.10204 -1.5042289,-3.28352 -2.1379754,-5.37654 -0.7097606,-2.34407 -1.2941859,-5.79059 -1.2941859,-7.6322 0,-0.77591 0.037809,-0.90127 0.6863983,-2.27587 1.710032,-3.62417 3.312739,-5.82255 4.8578936,-6.66341 0.50065,-0.27245 0.735708,-0.33056 1.328812,-0.32847 0.878502,0.003 1.454174,0.27396 2.229027,1.04881 1.190233,1.19023 2.172263,3.04015 3.647884,6.87176 1.144403,2.97158 1.986742,4.84422 2.801414,6.22797 3.086305,5.24221 6.06425,5.05696 8.881487,-0.55249 0.278872,-0.55527 1.078723,-2.3792 1.777446,-4.05318 2.082534,-4.98928 3.174178,-6.94385 4.699821,-8.41496 1.723298,-1.6617 3.181898,-1.67198 4.838531,-0.0341 1.277334,1.26288 2.354191,3.19242 3.995558,7.15933 1.962057,4.74198 3.097948,6.79886 4.566713,8.26945 1.658676,1.66073 3.280265,1.74234 4.868056,0.24499 1.180285,-1.11306 2.192814,-2.89196 3.59973,-6.32431 1.148964,-2.80305 1.871917,-4.35783 2.705021,-5.81741 0.956299,-1.67542 1.525799,-2.46906 2.389097,-3.32938 1.99204,-1.98519 2.824745,-1.04011 2.824745,-1.04011 2.832858,11.2805 -2.949715,24.60435 -9.604376,30.64085 -5.914098,5.25468 -13.601359,9.11253 -20.38537,9.18088 z"
       style="display:inline;opacity:1;fill:#q;fill-opacity:1;stroke:none;stroke-width:0;stroke-miterlimit:4;stroke-dasharray:none;stroke-opacity:0"
       transform="translate(0,-229.26666)"
       inkscape:connector-curvature="0" />
  </g>
  <g
     style="display:inline"
     id="layer5"
     transform="matrix(3.9747433,0,0,4.0271746,0.89544229,-1.4585952)">
    <path
       id="path8254-1"
       d="m 33.965699,296.53423 c -2.386634,0.035 -5.544936,-0.37171 -7.970637,-1.16812 -5.123586,-1.68219 -9.40094,-4.30443 -13.207504,-8.09691 -2.7979438,-2.78758 -4.7284753,-5.46706 -6.4296114,-8.92395 -1.0344162,-2.10204 -1.5042289,-3.28352 -2.1379754,-5.37654 -0.7097605,-2.34407 -1.2941859,-5.79059 -1.2941859,-7.6322 0,-0.77591 0.037809,-0.90127 0.6863984,-2.27587 1.7100315,-3.62417 3.312739,-5.82255 4.8578935,-6.66341 0.5006501,-0.27245 0.7357089,-0.33056 1.328812,-0.32847 0.8785018,0.003 1.4541748,0.27396 2.2290278,1.04881 1.190232,1.19023 2.172262,3.04015 3.647883,6.87176 1.144403,2.97158 1.986742,4.84422 2.801414,6.22797 3.086305,5.24221 6.06425,5.05696 8.881487,-0.55249 0.278872,-0.55527 1.078723,-2.3792 1.777446,-4.05318 2.082534,-4.98928 3.174178,-6.94385 4.699821,-8.41496 1.723298,-1.6617 3.181898,-1.67198 4.838531,-0.0341 1.277334,1.26288 2.354191,3.19242 3.995558,7.15933 1.962057,4.74198 3.097948,6.79886 4.566713,8.26945 1.658676,1.66073 3.280265,1.74234 4.868056,0.24499 1.180285,-1.11306 2.192814,-2.89196 3.59973,-6.32431 1.148964,-2.80305 1.871917,-4.35783 2.705021,-5.81741 0.956299,-1.67542 1.525799,-2.46906 2.389097,-3.32938 1.99204,-1.98519 4.018858,-1.91891 5.637774,0.6422 1.034669,1.63684 0.818539,3.74645 0.818539,3.74645 0.05143,2.05486 0.09529,2.57668 -0.258269,5.54593 -0.313053,2.60706 -1.942409,9.83328 -6.438454,15.87312 -1.361966,1.82962 -3.213203,3.91309 -5.341756,5.58612 -7.062551,5.55113 -12.806668,7.65148 -21.250809,7.77517 z"
       style="display:inline;opacity:1;fill:#003b6f;fill-opacity:1;stroke:none;stroke-width:0.11085651"
       transform="translate(0,-229.26666)"
       inkscape:connector-curvature="0" />
  </g>
  <g
     style="display:inline"
     transform="matrix(3.9747433,0,0,4.0271746,0.89544229,-924.75545)"
     id="layer1">
    <path
       transform="matrix(0.26458333,0,0,0.26458333,0,229.26666)"
       id="path8254"
       d="M 119.15941,254.37458 C 110.15639,253.80034 97.993017,251.40107 88.825012,248.39102 69.46028,242.03315 53.293901,232.1223 38.906887,217.78854 28.331982,207.25279 21.035484,197.12564 14.605993,184.06023 10.696389,176.1155 8.9207189,171.65008 6.5254564,163.73944 3.842897,154.87998 1.6340452,141.85373 1.6340452,134.89333 c 0,-2.93258 0.142902,-3.40639 2.5942614,-8.6017 6.4631114,-13.69765 12.5205884,-22.0065 18.3605424,-25.18456 1.892221,-1.02973 2.780632,-1.249338 5.022282,-1.241457 3.320322,0.01167 5.496093,1.035427 8.424671,3.963997 4.498518,4.49852 8.210125,11.49033 13.787276,25.97203 4.325302,11.23114 7.508945,18.30886 10.588021,23.53879 11.664776,19.81307 22.920002,19.11292 33.567826,-2.08817 1.054003,-2.09865 4.077061,-8.99225 6.717905,-15.31911 7.871,-18.85712 11.9969,-26.24447 17.76311,-31.80458 6.51325,-6.280441 12.02607,-6.319285 18.28736,-0.12886 4.82772,4.77308 8.89773,12.06582 15.10132,27.05888 7.41565,17.92244 11.70878,25.69647 17.26002,31.2546 6.26901,6.27679 12.39785,6.58523 18.39895,0.92594 4.46092,-4.20683 8.2878,-10.93023 13.60528,-23.9029 4.34254,-10.59421 7.07496,-16.47052 10.2237,-21.98705 3.61436,-6.33228 5.7668,-9.33187 9.02966,-12.5835 7.52897,-7.503081 14.4166,-6.718498 21.30812,2.42724 3.12659,4.14929 5.61477,8.70033 9.76436,17.85963 l 2.63291,7.192 -0.21955,5.27333 c -1.02233,24.55512 -9.63595,48.19654 -27.50886,69.63917 -4.10897,4.92965 -14.22,15.34453 -19.66645,19.54429 -24.00395,18.50949 -55.49791,29.71555 -87.51735,27.67324 z"
       style="display:inline;opacity:1;fill:#1a5589;fill-opacity:1;stroke:none;stroke-width:0.41898525"
       inkscape:connector-curvature="0"
       sodipodi:nodetypes="sssssssssssssssssssssssccssss" />
  </g>
</svg>
