<?xml version="1.0" encoding="UTF-8" standalone="no"?>
<svg width="267px" height="270px" viewBox="0 0 267 270" version="1.1" xmlns="http://www.w3.org/2000/svg" xmlns:xlink="http://www.w3.org/1999/xlink" xmlns:sketch="http://www.bohemiancoding.com/sketch/ns">
    <!-- Generator: Sketch 3.4.4 (17249) - http://www.bohemiancoding.com/sketch -->
    <title>logo.svg</title>
    <desc>Created with Sketch.</desc>
    <defs></defs>
    <g id="Page-1" stroke="none" stroke-width="1" fill="none" fill-rule="evenodd" sketch:type="MSPage">
        <g id="logo" sketch:type="MSLayerGroup">
            <ellipse id="Oval" fill="#ABE5F3" sketch:type="MSShapeGroup" cx="133.50752" cy="134.928166" rx="132.493983" ry="134.241685"></ellipse>
            <path d="M112.958,263.173 C92.593,256.398 76.692,248.289 61.561,233.016 C50.44,221.79 42.768,211 36.006,197.078 C31.896,188.613 30.028,183.855 27.509,175.426 C24.687,165.986 22.364,152.106 22.364,144.689 C22.364,141.564 22.514,141.059 25.094,135.523 C31.89,120.928 38.26,112.075 44.402,108.688 C46.392,107.59 47.327,107.356 49.684,107.365 C53.176,107.377 55.464,108.468 58.544,111.588 C63.274,116.382 67.178,123.832 73.044,139.262 C77.592,151.229 80.94,158.772 84.178,164.342 C96.446,185.455 108.282,184.709 119.48,162.118 C120.588,159.882 123.768,152.538 126.545,145.795 C134.822,125.703 139.161,117.831 145.225,111.907 C152.075,105.214 157.873,105.173 164.457,111.769 C169.535,116.854 173.815,124.625 180.339,140.599 C188.137,159.697 192.652,167.981 198.489,173.903 C205.083,180.591 211.529,180.92 217.839,174.89 C222.531,170.407 226.555,163.243 232.149,149.42 C236.714,138.132 239.589,131.87 242.899,125.993 C246.699,119.246 248.964,116.049 252.395,112.585 C260.313,104.59 263.623,108.395 263.623,108.395 C274.883,153.825 251.9,207.482 225.449,231.792 C201.942,252.954 171.387,268.49 144.422,268.765 C134.933,268.865 122.6,266.38 112.958,263.173 Z" id="Shape" fill="#022455" sketch:type="MSShapeGroup"></path>
            <path d="M133.9,269.44 C124.414,269.58 111.86,267.943 102.22,264.735 C81.854,257.961 64.853,247.401 49.723,232.128 C38.603,220.902 30.928,210.111 24.167,196.188 C20.055,187.724 18.187,182.966 15.669,174.538 C12.847,165.098 10.524,151.218 10.524,143.801 C10.524,140.677 10.674,140.171 13.252,134.637 C20.049,120.041 26.419,111.187 32.562,107.802 C34.552,106.706 35.485,106.472 37.842,106.48 C41.334,106.492 43.622,107.583 46.702,110.704 C51.432,115.497 55.337,122.947 61.202,138.378 C65.75,150.345 69.099,157.886 72.337,163.458 C84.604,184.57 96.44,183.824 107.637,161.234 C108.747,158.998 111.927,151.652 114.703,144.911 C122.981,124.817 127.32,116.946 133.383,111.021 C140.233,104.329 146.031,104.288 152.616,110.884 C157.693,115.97 161.973,123.741 168.496,139.716 C176.296,158.813 180.811,167.096 186.648,173.018 C193.24,179.708 199.686,180.035 205.998,174.005 C210.688,169.523 214.713,162.359 220.305,148.535 C224.872,137.248 227.745,130.985 231.057,125.108 C234.857,118.361 237.12,115.165 240.552,111.7 C248.469,103.705 256.525,103.972 262.96,114.286 C267.073,120.876 266.214,129.373 266.214,129.373 C266.418,137.648 266.594,139.75 265.187,151.708 C263.943,162.208 257.467,191.308 239.597,215.631 C234.183,223.001 226.824,231.391 218.364,238.129 C190.292,260.484 167.461,268.943 133.897,269.441 L133.9,269.44 Z" id="Shape" fill="#003B6F" sketch:type="MSShapeGroup"></path>
            <path d="M124.21,269.583 C114.74,268.973 101.95,266.415 92.308,263.208 C71.943,256.433 54.942,245.873 39.812,230.6 C28.692,219.374 21.017,208.583 14.256,194.662 C10.144,186.197 8.276,181.439 5.758,173.01 C2.938,163.57 0.614,149.69 0.614,142.273 C0.614,139.149 0.764,138.643 3.342,133.108 C10.139,118.513 16.509,109.66 22.652,106.273 C24.642,105.176 25.575,104.943 27.932,104.951 C31.425,104.964 33.712,106.055 36.792,109.175 C41.522,113.969 45.427,121.418 51.292,136.849 C55.842,148.816 59.189,156.359 62.427,161.929 C74.694,183.042 86.531,182.295 97.727,159.705 C98.837,157.469 102.017,150.125 104.793,143.382 C113.071,123.292 117.41,115.419 123.473,109.495 C130.323,102.803 136.121,102.761 142.706,109.358 C147.783,114.443 152.063,122.214 158.586,138.188 C166.386,157.286 170.901,165.57 176.739,171.492 C183.329,178.18 189.776,178.509 196.087,172.479 C200.777,167.996 204.803,160.832 210.395,147.009 C214.962,135.721 217.835,129.459 221.147,123.582 C224.947,116.835 227.211,113.638 230.643,110.174 C238.561,102.179 245.803,103.014 253.051,112.76 C256.341,117.18 258.956,122.03 263.321,131.79 L266.089,139.453 L265.859,145.073 C264.783,171.237 255.725,196.427 236.929,219.275 C232.607,224.528 221.974,235.625 216.246,240.1 C191.002,259.822 157.882,271.763 124.209,269.586 L124.21,269.583 Z" id="Shape" fill="#1A5589" sketch:type="MSShapeGroup"></path>
        </g>
    </g>
</svg>