<?xml version="1.0" encoding="UTF-8" standalone="no"?>
<svg
   xmlns:dc="http://purl.org/dc/elements/1.1/"
   xmlns:cc="http://creativecommons.org/ns#"
   xmlns:rdf="http://www.w3.org/1999/02/22-rdf-syntax-ns#"
   xmlns:svg="http://www.w3.org/2000/svg"
   xmlns="http://www.w3.org/2000/svg"
   xmlns:sodipodi="http://sodipodi.sourceforge.net/DTD/sodipodi-0.dtd"
   xmlns:inkscape="http://www.inkscape.org/namespaces/inkscape"
   version="1.1"
   id="svg2"
   viewBox="0 0 67.733332 67.733335"
   height="256"
   width="256"
   inkscape:version="0.91+devel+osxmenu r12922"
   sodipodi:docname="logo-square.svg">
  <sodipodi:namedview
     pagecolor="#ffffff"
     bordercolor="#666666"
     borderopacity="1"
     objecttolerance="10"
     gridtolerance="10"
     guidetolerance="10"
     inkscape:pageopacity="0"
     inkscape:pageshadow="2"
     inkscape:window-width="1440"
     inkscape:window-height="777"
     id="namedview8208"
     showgrid="false"
     inkscape:zoom="7.96875"
     inkscape:cx="214.12575"
     inkscape:cy="88.094118"
     inkscape:window-x="0"
     inkscape:window-y="23"
     inkscape:window-maximized="0"
     inkscape:current-layer="svg2" />
  <defs
     id="defs4" />
  <metadata
     id="metadata7">
    <rdf:RDF>
      <cc:Work
         rdf:about="">
        <dc:format>image/svg+xml</dc:format>
        <dc:type
           rdf:resource="http://purl.org/dc/dcmitype/StillImage" />
        <dc:title />
      </cc:Work>
    </rdf:RDF>
  </metadata>
  <rect
     style="opacity:1;fill:#fffeb5;fill-opacity:1;stroke:#000000;stroke-width:0;stroke-miterlimit:4;stroke-dasharray:none;stroke-opacity:0"
     id="rect8210"
     width="67.73333"
     height="67.73333"
     x="4.9999999e-06"
     y="-1.2729491e-06" />
  <g
     style="display:inline"
     id="layer6">
    <path
       id="path8254-8"
       d="m 5e-6,296.99999 c 0,0 0.0226,-12.26399 -0.0721885,-20.5524 0,-0.77591 6.0142796,-11.79173 6.6628689,-13.16633 1.710032,-3.62417 3.312739,-5.82255 4.8578936,-6.66341 0.50065,-0.27245 0.735708,-0.33056 1.328812,-0.32847 0.878502,0.003 1.454174,0.27396 2.229027,1.04881 1.190233,1.19023 2.172263,3.04015 3.647884,6.87176 1.144403,2.97158 1.986742,4.84422 2.801414,6.22797 3.086305,5.24221 6.06425,5.05696 8.881487,-0.55249 0.278872,-0.55527 1.078723,-2.3792 1.777446,-4.05318 2.082534,-4.98928 3.174178,-6.94385 4.699821,-8.41496 1.723298,-1.6617 3.181898,-1.67198 4.838531,-0.0341 1.277334,1.26288 2.354191,3.19242 3.995558,7.15933 1.962057,4.74198 3.097948,6.79886 4.566713,8.26945 1.658676,1.66073 3.280265,1.74234 4.868056,0.24499 1.180285,-1.11306 2.192814,-2.89196 3.59973,-6.32431 1.148964,-2.80305 1.871917,-4.35783 2.705021,-5.81741 0.956299,-1.67542 1.525799,-2.46906 2.389097,-3.32938 1.99204,-1.98519 2.824745,-1.04011 2.824745,-1.04011 0.832734,0.41275 1.129387,1.75273 1.189193,2.74189 l -0.05778,37.71235 z"
       style="display:inline;opacity:1;fill:#54e35e;fill-opacity:0.57317074;stroke:#000000;stroke-width:0;stroke-miterlimit:4;stroke-dasharray:none;stroke-opacity:0"
       transform="translate(0,-229.26666)"
       inkscape:connector-curvature="0"
       sodipodi:nodetypes="ccsscssssssssssssscccc" />
  </g>
  <g
     style="display:inline"
     id="layer5">
    <path
       id="path8254-1"
       d="m 5e-6,296.99999 0.00395023,-24.89015 c 0,-0.77591 2.95963907,-7.6746 3.60822847,-9.0492 1.7100315,-3.62417 3.312739,-5.82255 4.8578935,-6.66341 0.5006501,-0.27245 0.7357089,-0.33056 1.328812,-0.32847 0.8785018,0.003 1.4541748,0.27396 2.2290278,1.04881 1.190232,1.19023 2.172262,3.04015 3.647883,6.87176 1.144403,2.97158 1.986742,4.84422 2.801414,6.22797 3.086305,5.24221 6.06425,5.05696 8.881487,-0.55249 0.278872,-0.55527 1.078723,-2.3792 1.777446,-4.05318 2.082534,-4.98928 3.174178,-6.94385 4.699821,-8.41496 1.723298,-1.6617 3.181898,-1.67198 4.838531,-0.0341 1.277334,1.26288 2.354191,3.19242 3.995558,7.15933 1.962057,4.74198 3.097948,6.79886 4.566713,8.26945 1.658676,1.66073 3.280265,1.74234 4.868056,0.24499 1.180285,-1.11306 2.192814,-2.89196 3.59973,-6.32431 1.148964,-2.80305 1.871917,-4.35783 2.705021,-5.81741 0.956299,-1.67542 1.525799,-2.46906 2.389097,-3.32938 1.99204,-1.98519 4.018858,-1.91891 5.637774,0.6422 1.351884,2.8164 1.210658,6.22763 1.489943,9.29238 l -0.193054,29.70017 z"
       style="display:inline;opacity:1;fill:#00bcd4;fill-opacity:0.48170734;stroke-width:0.11085651"
       transform="translate(0,-229.26666)"
       inkscape:connector-curvature="0"
       sodipodi:nodetypes="ccsscssssssssssssscccc" />
  </g>
  <g
     style="display:inline"
     transform="translate(0,-229.26666)"
     id="layer1">
    <path
       transform="matrix(0.26458333,0,0,0.26458333,0,229.26666)"
       id="path8254"
       d="M 1.8897638e-5,255.99999 C 0.09424916,256.07537 -0.37379797,140.4149 -0.37379797,140.4149 c 0,-2.93258 2.15074517,-8.92796 4.60210457,-14.12327 6.4631114,-13.69765 12.5205884,-22.0065 18.3605424,-25.18456 1.892221,-1.02973 2.780632,-1.249338 5.022282,-1.241457 3.320322,0.01167 5.496093,1.035427 8.424671,3.963997 4.498518,4.49852 8.210125,11.49033 13.787276,25.97203 4.325302,11.23114 7.508945,18.30886 10.588021,23.53879 11.664776,19.81307 22.920002,19.11292 33.567826,-2.08817 1.054003,-2.09865 4.077061,-8.99225 6.717905,-15.31911 7.871,-18.85712 11.9969,-26.24447 17.76311,-31.80458 6.51325,-6.280441 12.02607,-6.319285 18.28736,-0.12886 4.82772,4.77308 8.89773,12.06582 15.10132,27.05888 7.41565,17.92244 11.70878,25.69647 17.26002,31.2546 6.26901,6.27679 12.39785,6.58523 18.39895,0.92594 4.46092,-4.20683 8.2878,-10.93023 13.60528,-23.9029 4.34254,-10.59421 7.07496,-16.47052 10.2237,-21.98705 3.61436,-6.33228 5.7668,-9.33187 9.02966,-12.5835 7.52897,-7.503081 14.4166,-6.718498 21.30812,2.42724 3.12659,4.14929 5.61477,8.70033 9.76436,17.85963 1.40031,4.25509 3.14126,8.36249 4.92316,12.46533 l -0.36185,118.48211 z"
       style="display:inline;opacity:1;fill:#37b1dc;fill-opacity:0.56862745;stroke-width:0.41898525"
       inkscape:connector-curvature="0"
       sodipodi:nodetypes="ccssssssssssssssssscccc" />
  </g>
</svg>
