<?xml version="1.0" encoding="UTF-8" standalone="no"?>
<svg width="193px" height="48px" viewBox="0 0 193 48" version="1.1" xmlns="http://www.w3.org/2000/svg" xmlns:xlink="http://www.w3.org/1999/xlink" xmlns:sketch="http://www.bohemiancoding.com/sketch/ns">
    <!-- Generator: Sketch 3.3.3 (12081) - http://www.bohemiancoding.com/sketch -->
    <title>btn_google_signin_light_normal_web</title>
    <desc>Created with Sketch.</desc>
    <defs>
        <filter x="-50%" y="-50%" width="200%" height="200%" filterUnits="objectBoundingBox" id="filter-1">
            <feOffset dx="0" dy="2" in="SourceAlpha" result="shadowOffsetOuter1"></feOffset>
            <feGaussianBlur stdDeviation="1" in="shadowOffsetOuter1" result="shadowBlurOuter1"></feGaussianBlur>
            <feColorMatrix values="0 0 0 0 0   0 0 0 0 0   0 0 0 0 0  0 0 0 0.168 0" in="shadowBlurOuter1" type="matrix" result="shadowMatrixOuter1"></feColorMatrix>
            <feOffset dx="0" dy="0" in="SourceAlpha" result="shadowOffsetOuter2"></feOffset>
            <feGaussianBlur stdDeviation="1" in="shadowOffsetOuter2" result="shadowBlurOuter2"></feGaussianBlur>
            <feColorMatrix values="0 0 0 0 0   0 0 0 0 0   0 0 0 0 0  0 0 0 0.084 0" in="shadowBlurOuter2" type="matrix" result="shadowMatrixOuter2"></feColorMatrix>
            <feMerge>
                <feMergeNode in="shadowMatrixOuter1"></feMergeNode>
                <feMergeNode in="shadowMatrixOuter2"></feMergeNode>
                <feMergeNode in="SourceGraphic"></feMergeNode>
            </feMerge>
        </filter>
        <rect id="path-2" x="0" y="0" width="185" height="40" rx="2"></rect>
    </defs>
    <g id="Google-Button" stroke="none" stroke-width="1" fill="none" fill-rule="evenodd" sketch:type="MSPage">
        <g id="btn_google_signin_light_normal_web" sketch:type="MSArtboardGroup">
            <g id="button" sketch:type="MSLayerGroup" transform="translate(4.000000, 4.000000)" filter="url(#filter-1)">
                <g id="button-bg">
                    <use fill="#FFFFFF" fill-rule="evenodd" sketch:type="MSShapeGroup" xlink:href="#path-2"></use>
                    <use fill="none" xlink:href="#path-2"></use>
                    <use fill="none" xlink:href="#path-2"></use>
                    <use fill="none" xlink:href="#path-2"></use>
                </g>
            </g>
            <g id="super-g" sketch:type="MSLayerGroup" transform="translate(15.000000, 15.000000)">
                <path d="M9,3.48 C10.69,3.48 11.83,4.21 12.48,4.82 L15.02,2.34 C13.46,0.89 11.43,0 9,0 C5.48,0 2.44,2.02 0.96,4.96 L3.87,7.22 C4.6,5.05 6.62,3.48 9,3.48 L9,3.48 Z" id="Shape" fill="#EA4335" sketch:type="MSShapeGroup"></path>
                <path d="M17.64,9.2 C17.64,8.46 17.58,7.92 17.45,7.36 L9,7.36 L9,10.7 L13.96,10.7 C13.86,11.53 13.32,12.78 12.12,13.62 L14.96,15.82 C16.66,14.25 17.64,11.94 17.64,9.2 L17.64,9.2 Z" id="Shape" fill="#4285F4" sketch:type="MSShapeGroup"></path>
                <path d="M3.88,10.78 C3.69,10.22 3.58,9.62 3.58,9 C3.58,8.38 3.69,7.78 3.87,7.22 L0.96,4.96 C0.35,6.18 0,7.55 0,9 C0,10.45 0.35,11.82 0.96,13.04 L3.88,10.78 L3.88,10.78 Z" id="Shape" fill="#FBBC05" sketch:type="MSShapeGroup"></path>
                <path d="M9,18 C11.43,18 13.47,17.2 14.96,15.82 L12.12,13.62 C11.36,14.15 10.34,14.52 9,14.52 C6.62,14.52 4.6,12.95 3.88,10.78 L0.97,13.04 C2.45,15.98 5.48,18 9,18 L9,18 Z" id="Shape" fill="#34A853" sketch:type="MSShapeGroup"></path>
                <path d="M0,0 L18,0 L18,18 L0,18 L0,0 Z" id="Shape" sketch:type="MSShapeGroup"></path>
            </g>
            <text id="Sign-in-with-Google" sketch:type="MSTextLayer" font-family="Roboto" font-size="14" font-weight="420" letter-spacing="0.21875" fill="#000000">
                <tspan x="54" y="29">Sign in with Google</tspan>
            </text>
        </g>
    </g>
</svg>